<svg width="75" height="45" viewBox="0 0 75 45" fill="none" xmlns="http://www.w3.org/2000/svg">
<path d="M29 35.5132V44L74 41.0682V28.7237V21.6513V9.79545L29 1V13.2484" stroke="white" stroke-width="2" stroke-linecap="round" stroke-linejoin="round"/>
<path d="M6.83916 25.189C7.00982 25.189 7.12182 25.3117 7.17516 25.557C7.23916 25.8024 7.27116 26.1757 7.27116 26.677C7.27116 27.189 7.23916 27.5677 7.17516 27.813C7.11116 28.0477 6.99916 28.165 6.83916 28.165C6.44449 28.165 6.02849 28.133 5.59116 28.069C5.32449 28.8477 4.97782 29.589 4.55116 30.293C4.12449 31.0077 3.69782 31.621 3.27116 32.133C2.92982 32.005 2.50316 31.7704 1.99116 31.429C1.48982 31.0984 1.11116 30.789 0.855156 30.501C0.887156 30.4584 0.92449 30.4157 0.967156 30.373C1.02049 30.3304 1.06849 30.2824 1.11116 30.229C2.00716 29.301 2.67916 28.501 3.12716 27.829C2.49782 27.6904 1.96982 27.429 1.54316 27.045C1.11649 26.6504 0.903156 26.1597 0.903156 25.573C0.903156 25.0504 1.04716 24.517 1.33516 23.973C1.62316 23.4184 1.98582 22.965 2.42316 22.613C2.87116 22.2504 3.31382 22.069 3.75116 22.069C4.22049 22.069 4.62582 22.2184 4.96716 22.517C5.30849 22.8157 5.56982 23.1997 5.75116 23.669C5.94316 24.1384 6.05516 24.6344 6.08716 25.157C6.42849 25.1784 6.67916 25.189 6.83916 25.189ZM2.55116 24.965C2.61516 25.0824 2.88716 25.173 3.36716 25.237C3.62316 25.269 3.88982 25.285 4.16716 25.285C4.40182 25.285 4.57249 25.2797 4.67916 25.269C4.49782 25.045 4.26849 24.8637 3.99116 24.725C3.72449 24.5757 3.46316 24.501 3.20716 24.501C3.01516 24.501 2.85516 24.5437 2.72716 24.629C2.60982 24.7037 2.55116 24.8157 2.55116 24.965ZM9.82403 25.189C9.9947 25.189 10.1067 25.3117 10.16 25.557C10.224 25.8024 10.256 26.1757 10.256 26.677C10.256 27.189 10.224 27.5677 10.16 27.813C10.096 28.0477 9.98403 28.165 9.82403 28.165H6.83203C6.67203 28.165 6.56003 28.0477 6.49603 27.813C6.43203 27.5677 6.40003 27.189 6.40003 26.677C6.40003 26.1757 6.43203 25.8024 6.49603 25.557C6.54936 25.3117 6.66136 25.189 6.83203 25.189H9.82403ZM12.8084 25.189C12.9791 25.189 13.0911 25.3117 13.1444 25.557C13.2084 25.8024 13.2404 26.1757 13.2404 26.677C13.2404 27.189 13.2084 27.5677 13.1444 27.813C13.0804 28.0477 12.9684 28.165 12.8084 28.165H9.81641C9.65641 28.165 9.54441 28.0477 9.48041 27.813C9.41641 27.5677 9.38441 27.189 9.38441 26.677C9.38441 26.1757 9.41641 25.8024 9.48041 25.557C9.53374 25.3117 9.64574 25.189 9.81641 25.189H12.8084ZM15.7928 25.189C15.9634 25.189 16.0754 25.3117 16.1288 25.557C16.1928 25.8024 16.2248 26.1757 16.2248 26.677C16.2248 27.189 16.1928 27.5677 16.1288 27.813C16.0648 28.0477 15.9528 28.165 15.7928 28.165H12.8008C12.6408 28.165 12.5288 28.0477 12.4648 27.813C12.4008 27.5677 12.3688 27.189 12.3688 26.677C12.3688 26.1757 12.4008 25.8024 12.4648 25.557C12.5181 25.3117 12.6301 25.189 12.8008 25.189H15.7928ZM20.8412 25.189C21.0118 25.189 21.1238 25.3117 21.1772 25.557C21.2412 25.8024 21.2732 26.1757 21.2732 26.677C21.2732 27.189 21.2412 27.5677 21.1772 27.813C21.1132 28.0477 21.0012 28.165 20.8412 28.165C20.4145 28.165 19.9878 28.0744 19.5612 27.893C19.1452 27.7117 18.8198 27.429 18.5852 27.045H18.4572C18.2225 27.461 17.8865 27.7544 17.4492 27.925C17.0118 28.085 16.4572 28.165 15.7852 28.165C15.6252 28.165 15.5132 28.0477 15.4492 27.813C15.3852 27.5677 15.3532 27.189 15.3532 26.677C15.3532 26.1757 15.3852 25.8024 15.4492 25.557C15.5025 25.3117 15.6145 25.189 15.7852 25.189C16.4358 25.189 16.9532 25.077 17.3372 24.853C17.7318 24.629 17.9985 24.1757 18.1372 23.493L19.4972 23.701C19.4865 23.7864 19.4812 23.909 19.4812 24.069C19.4812 24.517 19.5772 24.8157 19.7692 24.965C19.9718 25.1144 20.3292 25.189 20.8412 25.189ZM18.4092 22.373C18.1852 22.2877 17.8918 22.1224 17.5292 21.877C17.1665 21.621 16.9158 21.4024 16.7772 21.221C16.8092 21.0824 16.8892 20.8957 17.0172 20.661C17.1558 20.4157 17.3105 20.197 17.4812 20.005C17.6518 19.8024 17.8012 19.6904 17.9292 19.669C18.0465 19.6477 18.2225 19.701 18.4572 19.829C18.7025 19.957 18.9265 20.117 19.1292 20.309C19.3425 20.4904 19.4598 20.6344 19.4812 20.741C19.5238 20.901 19.4012 21.1837 19.1132 21.589C18.8358 21.9837 18.6012 22.245 18.4092 22.373ZM27.1037 25.189C27.2743 25.189 27.3863 25.3117 27.4397 25.557C27.5037 25.8024 27.5357 26.1757 27.5357 26.677C27.5357 27.189 27.5037 27.5677 27.4397 27.813C27.3757 28.0477 27.2637 28.165 27.1037 28.165C26.0157 28.165 25.189 27.7917 24.6237 27.045H24.4797C24.2557 27.365 23.941 27.605 23.5357 27.765C23.141 27.925 22.7517 28.0317 22.3677 28.085C21.9837 28.1384 21.477 28.165 20.8477 28.165C20.6877 28.165 20.5757 28.0477 20.5117 27.813C20.4477 27.5677 20.4157 27.189 20.4157 26.677C20.4157 26.1757 20.4477 25.8024 20.5117 25.557C20.565 25.3117 20.677 25.189 20.8477 25.189C21.4343 25.189 21.925 25.1517 22.3197 25.077C22.7143 25.0024 23.0717 24.8424 23.3917 24.597C23.7117 24.3517 23.973 23.9837 24.1757 23.493L25.5197 23.701C25.509 23.7864 25.5037 23.9037 25.5037 24.053C25.5037 24.501 25.621 24.805 25.8557 24.965C26.0903 25.1144 26.5063 25.189 27.1037 25.189ZM25.6637 30.293C25.685 30.453 25.5677 30.7144 25.3117 31.077C25.0557 31.4397 24.837 31.685 24.6557 31.813C24.453 31.7277 24.197 31.5784 23.8877 31.365C23.5783 31.1624 23.349 30.9757 23.1997 30.805C23.093 30.997 22.9543 31.1944 22.7837 31.397C22.613 31.5997 22.4743 31.7384 22.3677 31.813C22.1543 31.717 21.8823 31.5517 21.5517 31.317C21.221 31.093 20.9863 30.901 20.8477 30.741C20.9117 30.517 21.0717 30.2184 21.3277 29.845C21.5837 29.4717 21.797 29.285 21.9677 29.285C22.1383 29.285 22.3943 29.4024 22.7357 29.637C23.077 29.8824 23.285 30.085 23.3597 30.245C23.509 29.9784 23.6637 29.749 23.8237 29.557C23.9837 29.3757 24.1277 29.285 24.2557 29.285C24.4263 29.285 24.693 29.413 25.0557 29.669C25.429 29.9357 25.6317 30.1437 25.6637 30.293ZM33.3537 25.189C33.5243 25.189 33.6363 25.3117 33.6897 25.557C33.7537 25.8024 33.7857 26.1757 33.7857 26.677C33.7857 27.189 33.7537 27.5677 33.6897 27.813C33.6257 28.0477 33.5137 28.165 33.3537 28.165C32.2657 28.165 31.439 27.7917 30.8737 27.045H30.7297C30.5057 27.365 30.191 27.605 29.7857 27.765C29.391 27.925 29.0017 28.0317 28.6177 28.085C28.2337 28.1384 27.727 28.165 27.0977 28.165C26.9377 28.165 26.8257 28.0477 26.7617 27.813C26.6977 27.5677 26.6657 27.189 26.6657 26.677C26.6657 26.1757 26.6977 25.8024 26.7617 25.557C26.815 25.3117 26.927 25.189 27.0977 25.189C27.6843 25.189 28.175 25.1517 28.5697 25.077C28.9643 25.0024 29.3217 24.8424 29.6417 24.597C29.9617 24.3517 30.223 23.9837 30.4257 23.493L31.7697 23.701C31.759 23.7864 31.7537 23.9037 31.7537 24.053C31.7537 24.501 31.871 24.805 32.1057 24.965C32.3403 25.1144 32.7563 25.189 33.3537 25.189ZM32.8257 20.853C32.847 21.013 32.7297 21.2744 32.4737 21.637C32.2177 21.9997 31.999 22.245 31.8177 22.373C31.615 22.2877 31.359 22.1437 31.0497 21.941C30.7403 21.7277 30.511 21.5357 30.3617 21.365C30.255 21.557 30.1163 21.7544 29.9457 21.957C29.775 22.1597 29.6363 22.2984 29.5297 22.373C29.3163 22.277 29.0443 22.117 28.7137 21.893C28.383 21.6584 28.1483 21.461 28.0097 21.301C28.0737 21.077 28.2337 20.7784 28.4897 20.405C28.7457 20.0317 28.959 19.845 29.1297 19.845C29.3003 19.845 29.5563 19.9677 29.8977 20.213C30.239 20.4477 30.447 20.645 30.5217 20.805C30.671 20.5384 30.8257 20.3144 30.9857 20.133C31.1457 19.941 31.2897 19.845 31.4177 19.845C31.5883 19.845 31.855 19.9784 32.2177 20.245C32.591 20.501 32.7937 20.7037 32.8257 20.853ZM36.3397 25.189C36.5103 25.189 36.6223 25.3117 36.6757 25.557C36.7397 25.8024 36.7717 26.1757 36.7717 26.677C36.7717 27.189 36.7397 27.5677 36.6757 27.813C36.6117 28.0477 36.4997 28.165 36.3397 28.165H33.3477C33.1877 28.165 33.0757 28.0477 33.0117 27.813C32.9477 27.5677 32.9157 27.189 32.9157 26.677C32.9157 26.1757 32.9477 25.8024 33.0117 25.557C33.065 25.3117 33.177 25.189 33.3477 25.189H36.3397ZM47.9 25.189C48.0707 25.189 48.1827 25.3117 48.236 25.557C48.3 25.8024 48.332 26.1757 48.332 26.677C48.332 27.189 48.3 27.5677 48.236 27.813C48.172 28.0477 48.06 28.165 47.9 28.165C46.94 28.165 46.252 27.845 45.836 27.205H45.692C45.532 27.5144 45.324 27.7544 45.068 27.925C44.8227 28.085 44.5614 28.165 44.284 28.165C43.996 28.165 43.7187 28.085 43.452 27.925C43.1854 27.7544 42.972 27.5144 42.812 27.205H42.668C42.4227 27.5144 42.1134 27.7544 41.74 27.925C41.3774 28.085 40.988 28.165 40.572 28.165C40.156 28.165 39.7667 28.085 39.404 27.925C39.0414 27.765 38.7374 27.525 38.492 27.205H38.348C38.1134 27.493 37.8147 27.7277 37.452 27.909C37.1 28.0797 36.7267 28.165 36.332 28.165C36.172 28.165 36.06 28.0477 35.996 27.813C35.932 27.5677 35.9 27.189 35.9 26.677C35.9 26.1757 35.932 25.8024 35.996 25.557C36.0494 25.3117 36.1614 25.189 36.332 25.189C37.4947 25.189 38.1507 24.613 38.3 23.461H39.628C39.6707 24.133 39.788 24.6077 39.98 24.885C40.172 25.1517 40.4387 25.285 40.78 25.285C41.2494 25.285 41.596 25.1144 41.82 24.773C42.0547 24.421 42.236 23.9944 42.364 23.493L43.708 23.701C43.6974 23.7864 43.692 23.9037 43.692 24.053C43.692 24.4477 43.7614 24.7464 43.9 24.949C44.0494 25.1517 44.2414 25.253 44.476 25.253C45.0307 25.253 45.3347 24.6557 45.388 23.461H46.732C46.732 23.9197 46.7534 24.2664 46.796 24.501C46.8387 24.725 46.94 24.8957 47.1 25.013C47.2707 25.1304 47.5374 25.189 47.9 25.189ZM52.4545 22.693C52.6572 23.333 52.7585 24.0264 52.7585 24.773C52.7585 25.3384 52.6999 25.8824 52.5825 26.405C52.4652 26.9277 52.2999 27.3597 52.0865 27.701C51.6385 27.829 51.0465 27.941 50.3105 28.037C49.5745 28.1224 48.7692 28.165 47.8945 28.165C47.7345 28.165 47.6225 28.0477 47.5585 27.813C47.4945 27.5677 47.4625 27.189 47.4625 26.677C47.4625 26.1757 47.4945 25.8024 47.5585 25.557C47.6119 25.3117 47.7239 25.189 47.8945 25.189C49.0359 25.189 49.8785 25.125 50.4225 24.997C50.3372 24.6344 50.2305 24.277 50.1025 23.925C49.9852 23.573 49.9159 23.3597 49.8945 23.285L52.4545 22.693ZM52.7745 20.357C52.7959 20.517 52.6785 20.7784 52.4225 21.141C52.1665 21.5037 51.9479 21.749 51.7665 21.877C51.5639 21.7917 51.3079 21.6477 50.9985 21.445C50.6892 21.2317 50.4599 21.0397 50.3105 20.869C50.2039 21.061 50.0652 21.2584 49.8945 21.461C49.7239 21.6637 49.5852 21.8024 49.4785 21.877C49.2652 21.781 48.9932 21.621 48.6625 21.397C48.3319 21.1624 48.0972 20.965 47.9585 20.805C48.0225 20.581 48.1825 20.2824 48.4385 19.909C48.6945 19.5357 48.9079 19.349 49.0785 19.349C49.2492 19.349 49.5052 19.4717 49.8465 19.717C50.1879 19.9517 50.3959 20.149 50.4705 20.309C50.6199 20.0424 50.7745 19.8184 50.9345 19.637C51.0945 19.445 51.2385 19.349 51.3665 19.349C51.5372 19.349 51.8039 19.4824 52.1665 19.749C52.5399 20.005 52.7425 20.2077 52.7745 20.357Z" fill="white"/>
</svg>
